<?xml version="1.0" standalone="no"?><!DOCTYPE svg PUBLIC "-//W3C//DTD SVG 1.1//EN" "http://www.w3.org/Graphics/SVG/1.1/DTD/svg11.dtd"><svg t="1743932884787" class="icon" viewBox="0 0 1024 1024" version="1.1" xmlns="http://www.w3.org/2000/svg" p-id="14219" xmlns:xlink="http://www.w3.org/1999/xlink" width="200" height="200"><path d="M680 889.5v39.3c0 3.4-2.7 6.1-6.1 6.1H390.5c-3.4 0-6.1-2.7-6.1-6.1v-39.3" fill="#369BF4" p-id="14220"></path><path d="M693.7 889.5h-323c-3.4 0-6.1-2.7-6.1-6.1v-97.1c0-3.4 2.7-6.1 6.1-6.1h323c3.4 0 6.1 2.7 6.1 6.1v97.1c0 3.4-2.8 6.1-6.1 6.1z" fill="#43C3FE" p-id="14221"></path><path d="M336.2 475.9v112.8c0 7.6 0.5 15.2 1.5 22.5 3.9 29 15.3 55.6 32.1 78 20 26.7 32.9 57.9 36.5 90.8H655c3.6-32.9 16.5-64.1 36.5-90.8 16.8-22.4 28.2-49 32.1-78 1-7.4 1.5-14.9 1.5-22.5V475.9" fill="#FFE8E1" p-id="14222"></path><path d="M491.8 498.4V245.9c0-10.7-4.4-20.4-11.4-27.5S463.6 207 452.9 207c-21.4 0-38.9 17.5-38.9 38.9v300.4M569.6 498.4V392.7c0-10.7-4.4-20.4-11.4-27.5-7-7-16.8-11.4-27.5-11.4-21.4 0-38.9 17.5-38.9 38.9v105.8" fill="#FFE8E1" p-id="14223"></path><path d="M647.3 515.9v-95.8c0-10.7-4.4-20.4-11.4-27.5-7-7-16.8-11.4-27.5-11.4-21.4 0-38.9 17.5-38.9 38.9v78.3M723.6 611.4c1-3.4 1.5-7 1.5-10.8V444.8c0-10.7-4.4-20.4-11.4-27.5-7-7-16.8-11.4-27.5-11.4-21.4 0-38.9 17.5-38.9 38.9v71M414 546.4V444.9c0-10.7-4.4-20.4-11.4-27.5-7-7-16.8-11.4-27.5-11.4-21.4 0-38.9 17.5-38.9 38.9V600.6c0 3.7 0.5 7.4 1.5 10.8" fill="#FFE8E1" p-id="14224"></path><path d="M454.4 132.6c-61.6 0-111.8 50.2-111.8 111.8 0 8.3 6.7 15 15 15s15-6.7 15-15c0-45.1 36.7-81.8 81.8-81.8s81.8 36.7 81.8 81.8c0 8.3 6.7 15 15 15s15-6.7 15-15c0-61.5-50.2-111.8-111.8-111.8z" fill="#2042ED" p-id="14225"></path><path d="M454.3 104.2c77.4 0 140.4 62.9 140.4 140.3 0 8.3 6.7 15 15 15s15-6.7 15-15c0-93.9-76.4-170.3-170.4-170.3-93.9 0-170.3 76.4-170.3 170.3 0 8.3 6.7 15 15 15s15-6.7 15-15c0-77.5 62.9-140.3 140.3-140.3z" fill="#2042ED" p-id="14226"></path><path d="M724.3 406.9c0-0.1-0.1-0.1 0 0-10.1-10.1-24-15.9-38.2-15.9-10.3 0-19.9 2.9-28.1 8-2.7-6.2-6.5-11.9-11.4-16.9 0 0 0-0.1-0.1-0.1-10-10-23.9-15.8-38.1-15.8-10 0-19.4 2.7-27.4 7.5-2.7-7-6.8-13.5-12.2-19 0 0 0-0.1-0.1-0.1-10-10-23.9-15.8-38.1-15.8-8.6 0-16.7 2-23.9 5.6V246c0-14.2-5.6-27.7-15.7-38-10.1-10.2-23.6-15.9-38.2-15.9-29.7 0-53.9 24.2-53.9 53.9v150.6c-7.4-3.7-15.6-5.6-23.9-5.6-29.7 0-53.9 24.2-53.9 53.9V600.6c0 4.9 0.6 9.6 1.8 14 4.3 30.1 16.3 59 34.8 83.7 15.2 20.3 25.8 43.2 30.9 66.9h-18c-11.6 0-21.1 9.5-21.1 21.1v97.1c0 11.2 8.8 20.4 19.8 21v24.4c0 11.6 9.5 21.1 21.1 21.1h283.4c11.6 0 21.1-9.5 21.1-21.1v-24.4c11-0.7 19.8-9.8 19.8-21v-97.1c0-11.6-9.5-21.1-21.1-21.1h-21.1c5.2-23.7 15.7-46.5 30.9-66.8 18.5-24.7 30.5-53.7 34.8-83.9 1.2-4.4 1.8-9.1 1.8-13.9V444.8c0.1-14.2-5.5-27.8-15.7-37.9z m-324.9 513v-15.4H665v15.4H399.4z m285.4-45.4H379.6v-79.3h305.2v79.3z m-5.3-194.1c-19.1 25.6-32 54.6-37.5 84.8H419.3c-5.5-30.2-18.3-59.3-37.5-84.9-15.7-20.9-25.8-45.5-29.2-71-0.9-6.6-1.4-13.5-1.4-20.5v-144c0-13.2 10.7-23.9 23.9-23.9 6.3 0 12.4 2.5 16.9 7 4.5 4.6 7 10.6 7 16.9v101.5c0 8.3 6.7 15 15 15s15-6.7 15-15V245.9c0-13.2 10.7-23.9 23.9-23.9 6.4 0 12.4 2.5 16.8 6.9 4.6 4.6 7.1 10.7 7.1 17V498.4c0 8.3 6.7 15 15 15s15-6.7 15-15V392.6c0-13.2 10.7-23.9 23.9-23.9 6.3 0 12.4 2.5 16.9 7 4.5 4.6 7 10.6 7 16.9V498.3c0 8.3 6.7 15 15 15s15-6.7 15-15V420c0-13.2 10.7-23.9 23.9-23.9 6.3 0 12.4 2.5 16.9 7 4.5 4.6 7 10.6 7 16.9v21.6c-0.1 1-0.1 2.1-0.1 3.2v71c0 8.3 6.7 15 15 15s15-6.7 15-15v-73.1c1.1-12.2 11.3-21.8 23.8-21.8 6.3 0 12.4 2.5 16.9 7 4.5 4.6 7 10.6 7 16.9v144.1c0 6.9-0.5 13.8-1.4 20.5-3.4 25.5-13.4 50.1-29.1 71z" fill="#2042ED" p-id="14227"></path><path d="M643.7 816c-11.1 0-20.1 9-20.1 20.1s9 20.1 20.1 20.1 20.1-9 20.1-20.1-9-20.1-20.1-20.1z m0 20.2l-0.2-0.1v-0.1c0.1-0.1 0.1-0.1 0.2-0.1s0.1 0.1 0 0v0.3z" fill="#2042ED" p-id="14228"></path></svg>