<?xml version="1.0" standalone="no"?><!DOCTYPE svg PUBLIC "-//W3C//DTD SVG 1.1//EN" "http://www.w3.org/Graphics/SVG/1.1/DTD/svg11.dtd"><svg t="1743906696262" class="icon" viewBox="0 0 1024 1024" version="1.1" xmlns="http://www.w3.org/2000/svg" p-id="10263" xmlns:xlink="http://www.w3.org/1999/xlink" width="200" height="200"><path d="M458.517333 21.333333c-33.536 0-54.357333 33.6-61.888 110.229334l-1.066666 12.138666-0.853334 12.8c-0.234667 4.394667-0.448 8.917333-0.64 13.525334l-0.426666 14.208-0.213334 14.933333-0.192 24.490667-0.64 29.866666-0.853333 29.013334-1.045333 29.162666-0.490667 11.818667c-0.256 5.973333-0.533333 11.818667-0.810667 17.429333-1.002667 19.754667 29.930667 56.597333 58.816 70.954667 40.32 20.032 68.565333-3.648 68.565334-70.293333V147.2c0-84.16-19.84-125.866667-58.24-125.866667z" fill="#D38218" p-id="10264"></path><path d="M458.517333 40.789333c23.701333 0 38.805333 31.68 38.805334 106.410667v194.410667c0 53.525333-14.570667 65.728-40.448 52.885333-22.698667-11.285333-48.576-42.112-48.042667-52.544l0.832-17.621333 1.344-35.221334 1.408-51.2 0.469333-31.018666 0.106667-14.976 0.277333-14.165334 0.490667-13.397333 0.661333-12.608 0.853334-11.861333c0.32-3.84 0.64-7.530667 1.024-11.114667l1.216-10.389333c0.426667-3.328 0.874667-6.549333 1.365333-9.642667l1.536-8.96 1.706667-8.277333c7.957333-35.648 20.693333-50.709333 36.394666-50.709334z" fill="#FFE20D" p-id="10265"></path><path d="M451.626667 199.850667c-33.386667 0-60.522667 31.338667-62.186667 91.669333l-0.213333 19.626667-0.362667 13.824-0.64 13.930666c-0.597333 11.669333-1.493333 23.424-2.602667 35.178667l-1.472 14.08-1.706666 14.08-1.92 14.037333-2.176 13.930667-2.410667 13.824-2.602667 13.674667c-1.365333 6.805333-2.816 13.525333-4.352 20.16l-3.178666 13.184a622.72 622.72 0 0 1-6.976 25.536l-3.84 12.309333c-25.450667 78.933333-64.106667 135.808-112.789334 132.608-34.730667 0-68.032 53.482667-70.698666 109.162667-3.264 67.605333 35.946667 122.304 118.762666 143.402666 83.968 21.376 145.216-0.853333 183.573334-57.045333 29.013333-42.538667 42.944-102.528 42.944-161.450667V306.389333c0-75.306667-26.986667-106.538667-65.130667-106.538666z" fill="#D38218" p-id="10266"></path><path d="M451.626667 219.306667c26.730667 0 45.696 21.952 45.696 87.082666v389.184c0 55.36-13.056 111.658667-39.573334 150.485334-33.706667 49.365333-86.549333 68.544-162.666666 49.152-73.749333-18.773333-106.965333-65.109333-104.149334-123.605334 2.24-46.656 29.653333-90.666667 50.624-90.666666 62.570667 4.117333 106.837333-57.877333 135.957334-164.053334 18.965333-69.205333 30.293333-157.525333 31.253333-212.202666l0.064-7.253334c0-54.165333 19.946667-78.122667 42.816-78.122666z" fill="#FFD217" p-id="10267"></path><path d="M451.626667 219.306667c26.730667 0 45.696 21.952 45.696 87.082666v347.349334c0 55.36-13.056 111.68-39.573334 150.506666-33.706667 49.365333-86.549333 68.544-162.666666 49.152-61.824-15.744-95.146667-50.858667-102.677334-96.256 6.421333-40.896 30.357333-76.202667 49.152-76.202666 55.616 3.669333 96.768-44.928 125.674667-130.346667l4.266667-13.077333c2.069333-6.677333 4.053333-13.568 6.016-20.650667 18.965333-69.184 30.293333-157.504 31.253333-212.181333l0.064-7.253334c0-54.165333 19.946667-78.122667 42.816-78.122666z" fill="#FFE20D" p-id="10268"></path><path d="M3.904 706.986667c-0.725333 1.941333-1.344 4.693333-1.856 8.170666l-0.682667 5.824c-0.213333 2.133333-0.384 4.437333-0.554666 6.933334l-0.405334 8.021333-0.256 9.088-0.149333 10.133333v10.986667l0.234667 20.629333 0.149333 6.805334 0.597333 20.16 0.554667 13.184 0.64 12.928 0.810667 12.672 0.896 12.373333 1.045333 12.053333 1.770667 17.365334 1.344 11.093333 2.24 15.786667 1.664 9.92 1.792 9.429333 0.938666 4.48 1.984 8.618667c0.32 1.386667 0.682667 2.730667 1.024 4.053333l2.176 7.722667C26.944 988.8 36.010667 1002.666667 47.168 1002.666667h226.858667c23.658667 0 36.629333-9.6 43.52-36.181334l1.493333-6.442666 1.28-7.04c0.789333-4.928 1.450667-10.282667 2.005333-16.085334l0.746667-9.066666 0.597333-9.749334 0.64-16 0.256-11.605333 0.213334-18.858667-0.042667-45.717333-0.256-13.312-0.490667-13.354667-0.746666-13.354666a795.093333 795.093333 0 0 0-0.96-13.290667l-1.173334-13.162667-1.365333-13.013333-1.557333-12.757333-1.728-12.48-1.92-12.16-2.048-11.733334-2.218667-11.306666a528.768 528.768 0 0 0-1.152-5.461334l-2.410667-10.517333-2.517333-9.941333a332.8 332.8 0 0 0-2.624-9.28l-2.730667-8.597334c-5.973333-17.792-12.586667-30.293333-19.242666-34.944-5.333333-3.712-21.546667-2.218667-43.648 2.666667l-10.602667 2.496-11.328 2.922667-11.946667 3.328-12.458666 3.690666-12.842667 4.010667-13.12 4.288-13.290667 4.544-13.376 4.736-19.925333 7.424-13.056 5.056-12.714667 5.141333-6.208 2.581334-12.053333 5.162666-11.434667 5.12-10.730666 5.056-9.941334 4.949334c-20.522667 10.538667-34.56 20.010667-37.013333 26.581333z" fill="#009E3E" p-id="10269"></path><path d="M268.458667 623.189333c3.456 2.410667 7.189333 9.536 10.922666 20.16l2.218667 6.805334 2.218667 7.573333 2.176 8.298667 2.133333 8.96 2.090667 9.6 1.002666 5.013333 1.962667 10.389333 0.96 5.376 1.813333 11.093334 1.685334 11.434666 1.557333 11.776 1.429333 12.053334 1.258667 12.266666 0.554667 6.186667 1.002666 12.458667 0.789334 12.522666 0.576 12.544 0.213333 6.250667 0.256 12.416 0.021333 44.970667-0.192 17.92-0.213333 10.88-0.362667 10.090666-0.426666 9.301334-0.576 8.533333-0.704 7.829333-0.384 3.626667-0.896 6.762667-1.066667 6.101333-1.173333 5.461333c-4.650667 18.858667-12.522667 25.386667-25.28 25.386667H47.146667c-2.133333 0-4.352-3.776-6.613334-10.56l-1.493333-4.949333a152.704 152.704 0 0 1-0.746667-2.794667l-1.493333-6.186667-1.450667-6.976-1.450666-7.68-1.429334-8.32-1.386666-8.938666L29.76 917.333333l-1.92-15.189333-1.770667-16.149333-1.621333-16.96-1.450667-17.578667-0.832-11.989333-1.066666-18.261334-0.576-12.266666-0.469334-12.309334-0.341333-12.266666-0.256-18.261334v-10.88l0.213333-12.373333 0.256-7.274667 0.512-9.301333 0.426667-4.949333L21.333333 717.44l0.512-2.709333a8.618667 8.618667 0 0 1 0.277334-0.896c1.216-3.242667 9.706667-8.597333 22.869333-15.146667l8.426667-4.053333 9.429333-4.266667 5.056-2.24 10.666667-4.586667 17.28-7.082666 12.16-4.8 12.522666-4.842667 19.2-7.168 19.328-6.954667 19.029334-6.613333 18.325333-6.08 11.584-3.690667 10.986667-3.349333 10.197333-2.965333 9.322667-2.538667 8.32-2.069333c10.368-2.410667 17.706667-3.413333 20.693333-2.602667l0.938667 0.426667z" fill="#17BA55" p-id="10270"></path><path d="M565.482667 21.333333c33.536 0 54.357333 33.6 61.888 110.229334l1.066666 12.138666 0.853334 12.8c0.234667 4.394667 0.448 8.917333 0.64 13.525334l0.426666 14.208 0.213334 14.933333 0.192 24.490667 0.64 29.866666 0.853333 29.013334 1.045333 29.162666 0.490667 11.818667c0.256 5.973333 0.533333 11.818667 0.810667 17.429333 1.002667 19.754667-29.930667 56.597333-58.816 70.954667-40.32 20.032-68.565333-3.648-68.565334-70.293333V147.2c0-84.16 19.84-125.866667 58.24-125.866667z" fill="#D38218" p-id="10271"></path><path d="M565.482667 40.789333c-23.701333 0-38.805333 31.68-38.805334 106.410667v194.410667c0 53.525333 14.570667 65.728 40.448 52.885333 22.698667-11.285333 48.576-42.112 48.042667-52.544l-0.832-17.621333-1.344-35.221334-1.408-51.2-0.469333-31.018666-0.106667-14.976-0.277333-14.165334-0.490667-13.397333-0.661333-12.608-0.853334-11.861333c-0.32-3.84-0.64-7.530667-1.024-11.114667l-1.216-10.389333c-0.426667-3.328-0.874667-6.549333-1.365333-9.642667l-1.536-8.96-1.706667-8.277333c-7.957333-35.648-20.693333-50.709333-36.394666-50.709334z" fill="#FFE20D" p-id="10272"></path><path d="M572.373333 199.850667c33.386667 0 60.522667 31.338667 62.186667 91.669333l0.213333 19.626667 0.362667 13.824 0.64 13.930666c0.597333 11.669333 1.493333 23.424 2.602667 35.178667l1.472 14.08 1.706666 14.08 1.92 14.037333 2.176 13.930667 2.389334 13.824 2.624 13.674667c1.365333 6.805333 2.816 13.525333 4.352 20.16l3.178666 13.184c2.176 8.704 4.522667 17.216 6.976 25.536l3.84 12.309333c25.450667 78.933333 64.106667 135.808 112.789334 132.608 34.730667 0 68.032 53.482667 70.698666 109.162667 3.264 67.605333-35.946667 122.304-118.762666 143.402666-83.968 21.376-145.216-0.853333-183.573334-57.045333-29.013333-42.538667-42.944-102.528-42.944-161.450667V306.389333c0-75.306667 26.986667-106.538667 65.130667-106.538666z" fill="#D38218" p-id="10273"></path><path d="M572.373333 219.306667c-26.730667 0-45.696 21.952-45.696 87.082666v389.184c0 55.36 13.056 111.658667 39.573334 150.485334 33.706667 49.365333 86.549333 68.544 162.666666 49.152 73.749333-18.773333 106.965333-65.109333 104.149334-123.605334-2.24-46.656-29.653333-90.666667-50.624-90.666666-62.570667 4.117333-106.837333-57.877333-135.957334-164.053334-18.965333-69.205333-30.293333-157.525333-31.253333-212.202666l-0.064-7.253334c0-54.165333-19.946667-78.122667-42.816-78.122666z" fill="#FFD217" p-id="10274"></path><path d="M572.373333 219.306667c22.058667 0 41.408 22.336 42.730667 72.64l0.128 12.736c0.96 54.677333 12.288 142.997333 31.253333 212.181333 1.941333 7.082667 3.946667 13.973333 6.037334 20.650667l4.245333 13.077333c28.906667 85.418667 70.058667 134.016 125.653333 130.346667 18.816 0 42.730667 35.285333 49.152 76.16-7.466667 45.44-40.832 80.554667-102.656 96.298666-76.117333 19.392-128.981333 0.213333-162.666666-49.152-25.173333-36.906667-38.229333-89.557333-39.466667-142.186666l-0.106667-8.32V306.389333c0-65.130667 18.965333-87.082667 45.674667-87.082666z" fill="#FFE20D" p-id="10275"></path><path d="M1020.096 706.986667c0.725333 1.941333 1.344 4.693333 1.856 8.170666l0.682667 5.824c0.213333 2.133333 0.384 4.437333 0.554666 6.933334l0.405334 8.021333 0.256 9.088 0.149333 10.133333v10.986667l-0.234667 20.629333-0.149333 6.805334-0.597333 20.16-0.554667 13.184-0.64 12.928-0.810667 12.672-0.896 12.373333-1.045333 12.053333-1.770667 17.365334-1.344 11.093333-2.24 15.786667-1.664 9.92-1.792 9.429333-0.938666 4.48-1.984 8.618667c-0.32 1.386667-0.682667 2.730667-1.024 4.053333l-2.176 7.722667C997.056 988.8 987.989333 1002.666667 976.832 1002.666667H749.973333c-23.658667 0-36.629333-9.6-43.52-36.181334l-1.493333-6.442666-1.28-7.04a253.013333 253.013333 0 0 1-2.005333-16.085334l-0.746667-9.066666-0.597333-9.749334-0.64-16-0.256-11.605333-0.213334-18.858667 0.042667-45.717333 0.256-13.312 0.490667-13.354667 0.746666-13.354666c0.277333-4.437333 0.597333-8.874667 0.96-13.290667l1.173334-13.162667 1.365333-13.013333 1.557333-12.757333 1.728-12.48 1.92-12.16 2.048-11.733334 2.218667-11.306666 1.152-5.461334 2.410667-10.517333 2.517333-9.941333c0.853333-3.2 1.728-6.293333 2.624-9.28l2.730667-8.597334c5.973333-17.792 12.586667-30.293333 19.242666-34.944 5.333333-3.712 21.546667-2.218667 43.648 2.666667l10.602667 2.496 11.328 2.922667 11.946667 3.328 12.458666 3.690666 12.842667 4.010667 13.12 4.288 13.290667 4.544 13.376 4.736 19.925333 7.424 13.056 5.056 12.714667 5.141333 6.208 2.581334 12.053333 5.162666 11.434667 5.12 10.730666 5.056 9.941334 4.949334c20.522667 10.538667 34.56 20.010667 37.013333 26.581333z" fill="#009E3E" p-id="10276"></path><path d="M755.541333 623.189333c-3.456 2.410667-7.189333 9.536-10.922666 20.16l-2.218667 6.805334-2.218667 7.573333-2.176 8.298667-2.133333 8.96-2.090667 9.6-1.002666 5.013333-1.962667 10.389333-0.96 5.376-1.813333 11.093334-1.685334 11.434666-1.557333 11.776-1.429333 12.053334-1.258667 12.266666-0.554667 6.186667-1.002666 12.458667-0.789334 12.522666-0.576 12.544-0.213333 6.250667-0.256 12.416-0.021333 44.970667 0.192 17.92 0.213333 10.88 0.362667 10.090666 0.426666 9.301334 0.576 8.533333 0.704 7.829333 0.384 3.626667 0.896 6.762667 1.066667 6.101333 1.173333 5.461333c4.437333 18.005333 11.818667 24.746667 23.573334 25.344l228.565333 0.021334c2.133333 0 4.352-3.754667 6.613333-10.538667l1.493334-4.949333 0.746666-2.794667 1.493334-6.186667 1.450666-6.976 1.450667-7.68 1.429333-8.32 1.386667-8.938666 1.344-9.493334 1.92-15.189333 1.770667-16.149333 1.621333-16.96 1.450667-17.578667 0.832-11.989333 1.066666-18.261334 0.576-12.266666 0.469334-12.309334 0.341333-12.266666 0.256-18.261334v-10.88l-0.213333-12.373333-0.256-7.274667-0.512-9.301333-0.426667-4.949333L1002.666667 717.44l-0.512-2.709333a8.618667 8.618667 0 0 0-0.277334-0.896c-1.216-3.242667-9.706667-8.597333-22.869333-15.146667l-8.426667-4.053333-9.429333-4.266667-5.056-2.24-10.666667-4.586667-17.28-7.082666-12.16-4.8-12.522666-4.842667-19.2-7.168-19.328-6.954667-19.029334-6.613333-18.325333-6.08-11.584-3.690667-10.986667-3.349333-10.197333-2.965333-9.322667-2.538667-8.32-2.069333c-10.368-2.410667-17.706667-3.413333-20.693333-2.602667l-0.938667 0.426667z" fill="#17BA55" p-id="10277"></path></svg>