<?xml version="1.0" standalone="no"?><!DOCTYPE svg PUBLIC "-//W3C//DTD SVG 1.1//EN" "http://www.w3.org/Graphics/SVG/1.1/DTD/svg11.dtd"><svg t="1743905160034" class="icon" viewBox="0 0 1024 1024" version="1.1" xmlns="http://www.w3.org/2000/svg" p-id="3641" xmlns:xlink="http://www.w3.org/1999/xlink" width="200" height="200"><path d="M965.930667 562.197333L603.626667 882.688c-30.784 29.397333-80.896 6.912-80.896-36.352v-161.450667a516.224 516.224 0 0 0-36.821334-1.386666c-165.973333 0-310.570667 77.696-386.56 192.917333-15.658667 23.530667-51.136 14.549333-54.165333-13.845333A423.722667 423.722667 0 0 1 42.666667 816.213333c0-241.706667 208.341333-441.749333 480.234666-477.034666V177.664c0-43.264 50.133333-65.749333 80.896-36.352l362.304 348.394667c20.330667 19.370667 20.330667 52.949333-0.170666 72.490666z" fill="#131415" p-id="3642"></path></svg>